<html>
<head>
<meta charset="UTF-8">
<meta name="viewport" content="width=device-width, initial-scale=1.0"/>

<style>
.comment
{
    padding-left: 20px;
    margin-top: 4px;
    margin-right: 4px;
    margin-bottom: 4px;
    border: 2px #000 solid;
}
.submission
{
    border: 4px #00f solid;
    padding-left: 20px;
}
.hidden
{
    display: none;
}
</style>
</head>
<body><div class="submission" id="t3_72dmnm">
    <p class="userinfo">
        <a href="https://www.reddit.com/u/nyte_train">nyte_train</a>
        <span class="score"> | 32 points</span>
        <span class="timestamp"> | Sep 25 2017 16:37:47</span>
    </p>
    <strong>[TV] The Good Place S02E01 1080p WEB x265 10bit AAC 5.1 (671MB)</strong>
    <p><p>mega + zippy https://links.snahp.it/916gud</p>
<p>pw is sknilagem backwards</p>
<pre><code>General
Unique ID                      : 224580720722037901494856179500694164154 (0xA8F4AC6A4DB7BF3E825AC8685BF0D2BA)
Complete name                  : The.Good.Place.S02E01.1080p.WEB.x265.10bit.AAC.5.1.mkv
Format                         : Matroska
Format version                 : Version 4 / Version 2
File size                      : 671 MiB
Duration                       : 43 min 25 s
Overall bit rate               : 2 161 kb/s
Encoded date                   : UTC 2017-09-25 14:30:48
Writing application            : mkvmerge v15.0.0 ('Duel with the Devil') 64-bit
Writing library                : libebml v1.3.5 + libmatroska v1.4.5
SOURCE                         : The.Good.Place.S02E01.1080p.WEB.x264-STRiFE

Video
ID                             : 1
Format                         : HEVC
Format/Info                    : High Efficiency Video Coding
Format profile                 : Main 10@L4@Main
Codec ID                       : V_MPEGH/ISO/HEVC
Duration                       : 43 min 24 s
Bit rate                       : 2 000 kb/s
Width                          : 1 920 pixels
Height                         : 1 080 pixels
Display aspect ratio           : 16:9
Frame rate mode                : Constant
Frame rate                     : 23.976 (24000/1001) FPS
Color space                    : YUV
Chroma subsampling             : 4:2:0
Bit depth                      : 10 bits
Bits/(Pixel*Frame)             : 0.040
Stream size                    : 621 MiB (93%)
Writing library                : x265 2.5+17-f8ae7afc1f61:[Windows][GCC 6.2.1][64 bit] 10bit
Encoding settings              : cpuid=1173503 / frame-threads=2 / numa-pools=4 / wpp / no-pmode / no-pme / no-psnr / no-ssim / log-level=2 / input-csp=1 / input-res=1920x1080 / interlace=0 / total-frames=62454 / level-idc=0 / high-tier=1 / uhd-bd=0 / ref=3 / no-allow-non-conformance / no-repeat-headers / annexb / no-aud / no-hrd / info / hash=0 / no-temporal-layers / open-gop / min-keyint=23 / keyint=250 / bframes=4 / b-adapt=2 / b-pyramid / bframe-bias=0 / rc-lookahead=20 / lookahead-slices=6 / scenecut=40 / no-intra-refresh / ctu=64 / min-cu-size=8 / no-rect / no-amp / max-tu-size=32 / tu-inter-depth=1 / tu-intra-depth=1 / limit-tu=0 / rdoq-level=0 / dynamic-rd=0.00 / no-ssim-rd / signhide / no-tskip / nr-intra=0 / nr-inter=0 / no-constrained-intra / strong-intra-smoothing / max-merge=2 / limit-refs=3 / no-limit-modes / me=1 / subme=2 / merange=57 / temporal-mvp / weightp / no-weightb / no-analyze-src-pics / deblock=0:0 / sao / no-sao-non-deblock / rd=3 / no-early-skip / rskip / no-fast-intra / no-tskip-fast / no-cu-lossless / no-b-intra / no-splitrd-skip / rdpenalty=0 / psy-rd=2.00 / psy-rdoq=0.00 / no-rd-refine / analysis-reuse-mode=0 / no-lossless / cbqpoffs=0 / crqpoffs=0 / rc=abr / bitrate=2000 / qcomp=0.60 / qpstep=4 / stats-write=0 / stats-read=2 / cplxblur=20.0 / qblur=0.5 / ipratio=1.40 / pbratio=1.30 / aq-mode=1 / aq-strength=1.00 / cutree / zone-count=0 / no-strict-cbr / qg-size=32 / no-rc-grain / qpmax=69 / qpmin=0 / no-const-vbv / sar=0 / overscan=0 / videoformat=5 / range=0 / colorprim=2 / transfer=2 / colormatrix=2 / chromaloc=0 / display-window=0 / max-cll=0,0 / min-luma=0 / max-luma=1023 / log2-max-poc-lsb=8 / vui-timing-info / vui-hrd-info / slices=1 / opt-qp-pps / opt-ref-list-length-pps / no-multi-pass-opt-rps / scenecut-bias=0.05 / no-opt-cu-delta-qp / no-aq-motion / no-hdr / no-hdr-opt / no-dhdr10-opt / analysis-reuse-level=5 / scale-factor=0 / refine-intra=0 / refine-inter=0 / refine-mv=0 / no-limit-sao / ctu-info=0
Default                        : Yes
Forced                         : No

Audio
ID                             : 2
Format                         : AAC
Format/Info                    : Advanced Audio Codec
Format profile                 : HE-AAC / LC
Codec ID                       : A_AAC
Duration                       : 43 min 25 s
Bit rate                       : 158 kb/s
Channel(s)                     : 6 channels
Channel positions              : Front: L C R, Side: L R, LFE
Sampling rate                  : 48.0 kHz / 24.0 kHz
Frame rate                     : 23.438 FPS (1024 SPF)
Compression mode               : Lossy
Delay relative to video        : 31 ms
Stream size                    : 49.0 MiB (7%)
Language                       : English
Default                        : No
Forced                         : No
</code></pre></p>
    <p class="toolbar">
        <a href="https://www.reddit.com/r/megalinks/comments/72dmnm">permalink</a>
    </p>
</div>
<div class="comment" id="t1_dnqgcps">
    <p class="userinfo">
        <a
        class="toggle_hide_button"
        href="javascript:void(0)"
        onclick="toggle_collapse(this.parentElement.parentElement)">[-]
        </a>
        <a href="https://www.reddit.com/u/shruber">shruber</a>
        <span class="score"> | 3 points</span>
        <span class="timestamp"> | Sep 30 2017 23:06:01</span>
    </p>
    <div class="collapsible">
        <p>any chance you can upload episode 2?  thanks!</p>
        <p class="toolbar">
            <a href="https://www.reddit.com/r/megalinks/comments/72dmnm/_/dnqgcps">permalink</a>
        </p>
        
    </div>
</div>

<div class="comment" id="t1_dnhnnxh">
    <p class="userinfo">
        <a
        class="toggle_hide_button"
        href="javascript:void(0)"
        onclick="toggle_collapse(this.parentElement.parentElement)">[-]
        </a>
        <a href="https://www.reddit.com/u/SubZorro">SubZorro</a>
        <span class="score"> | 1 points</span>
        <span class="timestamp"> | Sep 25 2017 16:38:09</span>
    </p>
    <div class="collapsible">
        <h5>Subtitles for this episode:</h5>
<hr>
<blockquote>
<ul>
<li><strong>The.Good.Place.S02E01E02.HDTV.x264-KILLERS</strong> - <code>1 CD</code> - <a href="http://dl.opensubtitles.org/en/download/vrf-bb6b5a33/sub/7102139">Download Subtitle</a></li>
</ul>
</blockquote>
<hr>
<p>^This ^list ^of ^subtitles ^are ^taken ^from <a href="http://www.opensubtitles.org">^opensubtitles.org</a> ^| ^For ^feedback ^or ^suggestions ^contact <a href="http://www.reddit.com/message/compose/?to=indigo6alpha">^/u/indigo6alpha</a></p>
        <p class="toolbar">
            <a href="https://www.reddit.com/r/megalinks/comments/72dmnm/_/dnhnnxh">permalink</a>
        </p>
        
    </div>
</div>

<div class="comment" id="t1_dnhudj1">
    <p class="userinfo">
        <a
        class="toggle_hide_button"
        href="javascript:void(0)"
        onclick="toggle_collapse(this.parentElement.parentElement)">[-]
        </a>
        <a href="https://www.reddit.com/u/boomer98">boomer98</a>
        <span class="score"> | 1 points</span>
        <span class="timestamp"> | Sep 25 2017 18:31:53</span>
    </p>
    <div class="collapsible">
        <p>Been looking for a 1080p copy. Thanks!</p>
        <p class="toolbar">
            <a href="https://www.reddit.com/r/megalinks/comments/72dmnm/_/dnhudj1">permalink</a>
        </p>
        
    </div>
</div>
</body>

<script>
function toggle_collapse(comment_div)
{
    var button = comment_div.getElementsByClassName("toggle_hide_button")[0];
    var collapsible = comment_div.getElementsByClassName("collapsible")[0];
    if (collapsible.classList.contains("hidden"))
    {
        collapsible.classList.remove("hidden");
        button.innerText = "[-]";
    }
    else
    {
        collapsible.classList.add("hidden");
        button.innerText = "[+]";
    }
}
</script>
</html>
